<?xml version="1.0" standalone="no"?>
<!DOCTYPE svg PUBLIC "-//W3C//DTD SVG 20010904//EN"
 "http://www.w3.org/TR/2001/REC-SVG-20010904/DTD/svg10.dtd">
<svg version="1.0" xmlns="http://www.w3.org/2000/svg"
 width="260.000000pt" height="260.000000pt" viewBox="0 0 260.000000 260.000000"
 preserveAspectRatio="xMidYMid meet">
<metadata>
Created by potrace 1.14, written by Peter Selinger 2001-2017
</metadata>
<g transform="translate(0.000000,260.000000) scale(0.100000,-0.100000)"
fill="#000000" stroke="none">
<path d="M351 1969 c-107 -21 -187 -92 -217 -196 -21 -71 -26 -231 -10 -314
28 -147 89 -210 230 -241 27 -6 158 -11 290 -12 l241 -1 0 -102 c0 -93 -2
-105 -23 -125 -21 -22 -30 -23 -150 -22 -123 2 -285 8 -484 20 l-98 6 0 -120
c0 -87 3 -121 13 -124 6 -3 39 -6 72 -7 33 -2 76 -4 95 -6 81 -9 347 -19 495
-19 180 -1 245 13 308 65 39 32 83 113 91 169 10 65 8 267 -4 311 -22 87 -54
135 -115 176 -60 39 -110 46 -351 48 -290 3 -294 4 -294 133 0 114 12 119 320
120 135 1 268 1 296 2 l50 0 0 125 0 125 -355 -1 c-196 -1 -376 -5 -400 -10z"/>
<path d="M1370 1963 c-1 -27 -1 -1098 -1 -1176 l1 -67 423 0 c435 1 478 4 553
43 39 20 90 77 109 122 26 65 37 183 22 250 -5 22 -10 47 -12 56 -14 66 -93
156 -158 180 l-35 12 39 26 c85 58 125 153 116 281 -10 154 -73 237 -211 278
-12 3 -207 8 -433 9 -391 4 -413 3 -413 -14z m702 -262 c26 -23 30 -35 32 -81
2 -30 -2 -68 -7 -83 -18 -53 -42 -60 -223 -61 -110 -1 -168 2 -174 9 -5 6 -9
64 -9 127 l1 117 175 -1 175 0 30 -27z m35 -490 c38 -15 53 -48 53 -112 0 -69
-21 -106 -68 -118 -20 -5 -119 -9 -219 -9 l-181 0 0 121 c0 67 1 124 3 127 7
12 382 4 412 -9z"/>
</g>
</svg>
