<svg width="260" height="132" viewBox="0 0 260 132" fill="none" xmlns="http://www.w3.org/2000/svg">
<rect x="253" width="7" height="132" fill="black"/>
<rect width="7" height="132" fill="black"/>
<rect x="230" width="30" height="7" fill="black"/>
<rect y="125" width="30" height="7" fill="black"/>
<rect width="30" height="7" fill="black"/>
<rect x="230" y="125" width="30" height="7" fill="black"/>
<path d="M27.64 69.2H45.24C48.1147 69.2 50.2267 69.86 51.576 71.18C52.9253 72.4707 53.6 74.4507 53.6 77.12C53.6 78.88 53.2187 80.3173 52.456 81.432C51.6933 82.5173 50.7547 83.28 49.64 83.72C52.016 84.3653 53.6293 85.9493 54.48 88.472C54.7733 89.3813 54.92 90.4373 54.92 91.64C54.92 94.5147 54.2453 96.6267 52.896 97.976C51.5467 99.3253 49.4347 100 46.56 100H27.64V69.2ZM47 90.32C47 88.56 46.12 87.68 44.36 87.68H35.56V93.84H44.36C46.12 93.84 47 92.96 47 91.2V90.32ZM45.68 78C45.68 76.24 44.8 75.36 43.04 75.36H35.56V81.52H43.04C44.8 81.52 45.68 80.64 45.68 78.88V78Z" fill="black"/>
<path d="M72.12 69.2H80.48L87.74 84.16L95 69.2H103.36L91.7 91.86V100H83.78V91.86L72.12 69.2Z" fill="black"/>
<path d="M140.6 100H132.68V75.36H123.44V69.2H149.84V75.36H140.6V100Z" fill="black"/>
<path d="M193.56 100H169.14V69.2H193.56V75.36H177.06V81.3H190.04V87.46H177.06V93.84H193.56V100Z" fill="black"/>
<path d="M206.716 93.62C214.753 94.06 220.195 94.28 223.04 94.28C223.715 94.28 224.243 94.0893 224.624 93.708C225.035 93.2973 225.24 92.7547 225.24 92.08V88.12H215.12C212.04 88.12 209.796 87.4307 208.388 86.052C207.009 84.644 206.32 82.4 206.32 79.32V78C206.32 74.92 207.009 72.6907 208.388 71.312C209.796 69.904 212.04 69.2 215.12 69.2H230.564V75.36H216.88C215.12 75.36 214.24 76.24 214.24 78V78.88C214.24 80.64 215.12 81.52 216.88 81.52H224.8C227.675 81.52 229.787 82.1947 231.136 83.544C232.485 84.8933 233.16 87.0053 233.16 89.88V92.08C233.16 94.9547 232.485 97.0667 231.136 98.416C229.787 99.7653 227.675 100.44 224.8 100.44C223.304 100.44 221.72 100.411 220.048 100.352L216 100.176C213.008 100.029 209.913 99.824 206.716 99.56V93.62Z" fill="black"/>
<path d="M26.716 52.62C34.7533 53.06 40.1947 53.28 43.04 53.28C43.7147 53.28 44.2427 53.0893 44.624 52.708C45.0347 52.2973 45.24 51.7547 45.24 51.08V47.12H35.12C32.04 47.12 29.796 46.4307 28.388 45.052C27.0093 43.644 26.32 41.4 26.32 38.32V37C26.32 33.92 27.0093 31.6907 28.388 30.312C29.796 28.904 32.04 28.2 35.12 28.2H50.564V34.36H36.88C35.12 34.36 34.24 35.24 34.24 37V37.88C34.24 39.64 35.12 40.52 36.88 40.52H44.8C47.6747 40.52 49.7867 41.1947 51.136 42.544C52.4853 43.8933 53.16 46.0053 53.16 48.88V51.08C53.16 53.9547 52.4853 56.0667 51.136 57.416C49.7867 58.7653 47.6747 59.44 44.8 59.44C43.304 59.44 41.72 59.4107 40.048 59.352L36 59.176C33.008 59.0293 29.9133 58.824 26.716 58.56V52.62ZM97.1566 41.84L90.9966 52.84H84.8366L78.6766 41.84V59H70.7566V28.2H79.1166L87.9166 44.48L96.7166 28.2H105.077V59H97.1566V41.84ZM129.514 59H120.934L132.594 28.2H141.394L153.054 59H144.474L142.494 53.5H131.494L129.514 59ZM133.474 47.78H140.514L136.994 37.44L133.474 47.78ZM176.812 52.84H192.872V59H168.892V28.2H176.812V52.84ZM217.522 52.84H233.582V59H209.602V28.2H217.522V52.84Z" fill="black"/>
</svg>
